<svg xmlns="http://www.w3.org/2000/svg" viewBox="0 0 4 4"><path class="dont-remove"  d="M3.6.3a.1.1,0,0,0-.1.1h.3v.7H.3V.6H.5A.1.1,0,0,0,.4.3C.2.3,0,.4,0,.6v3A.4.4,0,0,0,.4,4H3.6A.4.4,0,0,0,4,3.6V.6C4,.4,3.8.3,3.6.3Zm.2,3.3a.2.2,0,0,1-.2.2H.4c-.1,0-.1-.1-.1-.2V1.5H3.8ZM.8.8V.1H.6V.6A.2.2,0,0,0,.8.8Zm.5,0V.1H1.1V.6A.2.2,0,0,0,1.3.8Zm.5,0V.1H1.6V.6A.2.2,0,0,0,1.8.8Zm.5,0V.1H2.1V.6Zm.5,0V.1H2.6V.6Zm.5,0V.1H3.1V.6ZM.8,2.4H.9V2.1A.1.1,0,0,0,.8,2c-.1,0-.2,0-.2.1v.2Zm.5,0h.1V2.1A.1.1,0,0,0,1.3,2c-.1,0-.2,0-.2.1v.2Zm.5,0h.1V2.1A.1.1,0,0,0,1.8,2c-.1,0-.2,0-.2.1v.2Zm.5,0h.1V2.1A.1.1,0,0,0,2.3,2c-.1,0-.2,0-.2.1v.2Zm.5,0h.1V2.1A.1.1,0,0,0,2.8,2c-.1,0-.2,0-.2.1v.2Zm.5,0h.1V2.1A.1.1,0,0,0,3.3,2c-.1,0-.2,0-.2.1v.2ZM.8,3.4H.9V3.1A.1.1,0,0,0,.8,3c-.1,0-.2,0-.2.1v.2Zm.5,0h.1V3.1A.1.1,0,0,0,1.3,3c-.1,0-.2,0-.2.1v.2Zm.5,0h.1V3.1A.1.1,0,0,0,1.8,3c-.1,0-.2,0-.2.1v.2Zm.5,0h.1V3.1A.1.1,0,0,0,2.3,3c-.1,0-.2,0-.2.1v.2Zm.5,0h.1V3.1A.1.1,0,0,0,2.8,3c-.1,0-.2,0-.2.1v.2Zm.5,0h.1V3.1A.1.1,0,0,0,3.3,3c-.1,0-.2,0-.2.1v.2Z" fill="#3e3e3e"/></svg>
